<svg width="24" height="25" viewBox="0 0 24 25" fill="none" xmlns="http://www.w3.org/2000/svg">
<path d="M10 7.25C8.20507 7.25 6.75 8.70507 6.75 10.5C6.75 10.9142 6.41421 11.25 6 11.25C5.58579 11.25 5.25 10.9142 5.25 10.5C5.25 7.87665 7.37665 5.75 10 5.75C10.4142 5.75 10.75 6.08579 10.75 6.5C10.75 6.91421 10.4142 7.25 10 7.25Z" fill="#3B373E"/>
<path fill-rule="evenodd" clip-rule="evenodd" d="M2.25 11C2.25 6.44365 5.94365 2.75 10.5 2.75C15.0563 2.75 18.75 6.44365 18.75 11C18.75 12.4924 18.3537 13.8922 17.6607 15.1L20.5303 17.9696C21.3755 18.8148 21.3755 20.1851 20.5303 21.0303C19.6851 21.8755 18.3148 21.8755 17.4697 21.0303L14.6 18.1607C13.3922 18.8537 11.9924 19.25 10.5 19.25C5.94365 19.25 2.25 15.5563 2.25 11ZM10.5 4.25C6.77208 4.25 3.75 7.27208 3.75 11C3.75 14.7279 6.77208 17.75 10.5 17.75C14.2279 17.75 17.25 14.7279 17.25 11C17.25 7.27208 14.2279 4.25 10.5 4.25ZM15.8451 17.2845L18.5303 19.9696C18.7897 20.229 19.2103 20.229 19.4697 19.9696C19.7291 19.7103 19.7291 19.2897 19.4697 19.0303L16.7845 16.3451C16.497 16.6828 16.1828 16.997 15.8451 17.2845Z" fill="#3B373E"/>
</svg>
